<?xml version="1.0" encoding="utf-8"?>
<!-- Generator: Adobe Illustrator 24.3.0, SVG Export Plug-In . SVG Version: 6.00 Build 0)  -->
<svg version="1.1" xmlns="http://www.w3.org/2000/svg" xmlns:xlink="http://www.w3.org/1999/xlink" x="0px" y="0px"
	 viewBox="0 0 595.276 841.89" enable-background="new 0 0 595.276 841.89" xml:space="preserve">
<g id="background">
	<rect x="0" fill="#019FA2" width="595.276" height="840.777"/>
	<g>
		<path fill="#EFDF9C" d="M94.365,614.941c-0.817-0.182-1.498,0.092-2.043,0.816c-0.545,0.728-1.044,1.273-1.497,1.634
			c-1.273,1.089-2.77,1.681-4.494,1.771c-1.725,0.092-3.404,0.047-5.037-0.137c-2.361-0.361-4.608-0.906-6.74-1.634
			c-2.134-0.724-4.289-1.497-6.467-2.313c-2.09-0.726-4.132-1.452-6.128-2.179c-1.997-0.726-4.04-1.499-6.127-2.315
			c3.085-1.995,5.672-4.47,7.761-7.42c2.088-2.95,3.994-6.059,5.719-9.327c1.724-3.268,3.448-6.467,5.174-9.599
			c1.724-3.133,3.766-5.878,6.128-8.238c1.45-1.452,3.2-2.428,5.241-2.928c2.043-0.498,3.97-1.111,5.787-1.837
			c8.17-3.178,15.815-7.625,22.942-13.345c7.125-5.718,13.228-12.027,18.314-18.926c1.088-1.45,2.291-3.289,3.607-5.515
			c1.315-2.224,2.383-4.56,3.2-7.012c0.817-2.45,1.158-4.833,1.022-7.149c-0.137-2.313-1.069-4.289-2.792-5.923
			c-1.273-1.089-2.723-1.814-4.357-2.179c-1.634-0.361-3.336-0.521-5.106-0.476c-1.771,0.047-3.495,0.273-5.174,0.681
			c-1.681,0.408-3.2,0.839-4.561,1.294c-3.812,1.452-7.376,3.291-10.689,5.513c-3.315,2.225-6.422,4.654-9.326,7.285
			c-6.536,5.81-12.254,12.232-17.156,19.265c-4.902,7.035-9.395,14.457-13.479,22.262c-0.909,1.546-1.838,2.815-2.792,3.812
			c-0.953,1.001-2.383,1.499-4.289,1.499c-1.544-0.09-3.064-0.41-4.561-0.955c-1.498-0.545-2.838-1.269-4.016-2.179
			c-2.907-1.814-5.242-4.152-7.013-7.012c-1.77-2.858-2.791-6.013-3.063-9.462c-0.272-3.268,0.136-6.649,1.225-10.145
			c1.089-3.492,2.7-6.715,4.833-9.667c2.132-2.948,4.674-5.423,7.625-7.42c2.949-1.995,6.148-3.221,9.6-3.676
			c0.998-0.182,2.018-0.273,3.064-0.273c1.042,0,2.063,0.183,3.063,0.545c0.817,0.273,1.61,0.681,2.383,1.226
			c0.77,0.545,1.567,0.816,2.384,0.816c0.817,0.092,1.429-0.02,1.838-0.34c0.408-0.316,0.657-0.726,0.749-1.226
			c0.09-0.498,0.021-1.042-0.204-1.634c-0.227-0.588-0.568-1.109-1.021-1.566c-3.451-1.45-6.9-1.995-10.348-1.634
			c-3.451,0.365-6.447,1.044-8.987,2.044c-3.268,1.271-6.446,2.905-9.531,4.9c-3.086,1.999-5.878,4.291-8.374,6.877
			c-2.498,2.587-4.585,5.47-6.263,8.646c-1.681,3.178-2.702,6.583-3.063,10.211c-0.272,3.812,0.204,7.604,1.429,11.369
			c1.226,3.768,3.289,6.922,6.195,9.464c3.177,2.633,6.74,4.312,10.689,5.036c3.948,0.728,7.919,1.136,11.914,1.226
			c-2.361,4.628-4.789,8.986-7.284,13.071c-2.498,4.084-5.197,8.261-8.101,12.527c-0.456,0.726-0.909,1.497-1.362,2.313
			c-0.456,0.818-1.181,1.318-2.179,1.499c-0.909,0.182-1.838,0.047-2.792-0.41c-0.953-0.453-1.838-0.769-2.655-0.953
			c-2.362-0.724-4.766-1.314-7.216-1.771c-2.451-0.453-4.858-0.633-7.217-0.545c-3.45,0.092-7.08,0.568-10.893,1.431
			c-3.812,0.863-7.033,2.61-9.667,5.241c-1.542,1.544-2.267,3.063-2.179,4.562c0.092,1.497,0.636,2.881,1.634,4.152
			c1,1.273,2.27,2.383,3.812,3.336s2.996,1.657,4.357,2.11c1.995,0.636,4.061,1,6.195,1.089c2.132,0.09,4.242,0.021,6.332-0.205
			c2.087-0.224,4.152-0.59,6.195-1.089c2.042-0.498,4.016-1.021,5.923-1.566c2.267-0.545,4.357-1.269,6.263-2.179
			c0.906-0.453,1.77-0.906,2.587-1.361c0.817-0.453,1.724-0.681,2.723-0.681c1.634,0.092,3.221,0.613,4.766,1.566
			c1.542,0.953,3.084,1.657,4.629,2.11c1.906,0.636,3.948,1.294,6.127,1.976c2.179,0.679,4.379,1.247,6.604,1.7
			c2.222,0.455,4.424,0.75,6.603,0.886c2.179,0.137,4.31-0.023,6.4-0.476c1.178-0.273,2.471-0.613,3.88-1.021
			c1.406-0.41,2.768-0.931,4.085-1.566c1.315-0.634,2.472-1.431,3.472-2.383c0.999-0.953,1.771-2.11,2.315-3.473
			c0.361-0.453,0.545-0.929,0.545-1.429C95.454,615.464,95.09,615.124,94.365,614.941z M94.433,552.241
			c3.039-5.312,6.284-10.598,9.735-15.863c1.178-1.724,2.427-3.561,3.744-5.515c1.315-1.95,2.7-3.857,4.152-5.718
			c1.451-1.86,2.996-3.541,4.629-5.038s3.449-2.745,5.446-3.744c0.817-0.361,1.747-0.681,2.792-0.953
			c1.042-0.273,2.042-0.387,2.996-0.342c0.953,0.047,1.838,0.342,2.655,0.886c0.817,0.545,1.362,1.361,1.634,2.45
			c0.362,1.817,0.113,3.676-0.749,5.583c-0.864,1.905-1.702,3.539-2.519,4.902c-2.361,4.357-5.037,8.373-8.033,12.048
			c-2.996,3.678-6.218,7.104-9.668,10.28c-2.089,1.817-4.176,3.633-6.262,5.446c-2.09,1.817-4.313,3.496-6.672,5.038
			c-1.906,1.544-3.995,2.815-6.263,3.812c-2.269,1-4.585,1.954-6.944,2.86C88.282,562.929,91.391,557.551,94.433,552.241z
			 M28.533,617.732c-2.77,1.136-5.697,1.837-8.783,2.11c-0.999,0.092-2.02,0.137-3.063,0.137c-1.045,0-2.09-0.09-3.132-0.273
			c-1.044-0.182-1.975-0.521-2.792-1.021c-0.817-0.498-1.408-1.247-1.77-2.247c-0.455-1.179-0.476-2.247-0.068-3.2
			c0.409-0.953,1.021-1.724,1.838-2.315c0.817-0.59,1.771-1.066,2.86-1.429c1.089-0.361,2.087-0.634,2.996-0.818
			c3.357-0.453,6.693-0.203,10.008,0.75c3.313,0.953,6.42,2.11,9.326,3.473C33.774,614.988,31.301,616.598,28.533,617.732z"/>
		<path fill="#EFDF9C" d="M165.574,592.747c-1.906,2.089-3.677,4.336-5.311,6.739c-1.634,2.407-3.291,4.814-4.969,7.217
			c-1.681,2.407-3.496,4.652-5.446,6.741c-1.953,2.089-4.2,3.859-6.74,5.31c-1.817,0.545-2.883,0.271-3.2-0.818
			c-0.318-1.089-0.272-2.45,0.137-4.084c0.408-1.634,0.998-3.268,1.77-4.902c0.77-1.634,1.338-2.723,1.702-3.268
			c4.085-6.352,7.942-12.888,11.573-19.607c3.63-6.715,7.353-13.432,11.165-20.152h-13.616c-0.455,1.001-0.953,1.954-1.497,2.86
			c-0.545,0.908-1.089,1.862-1.634,2.86c-0.909-2.452-2.225-4.086-3.948-4.902c-1.726-0.818-3.608-1.134-5.651-0.953
			c-2.042,0.182-4.131,0.703-6.262,1.566c-2.135,0.863-4.017,1.749-5.651,2.655c-4.72,2.633-9.054,5.809-13.003,9.53
			c-3.948,3.723-7.42,7.853-10.415,12.39c-1.362,2.091-2.702,4.312-4.016,6.672c-1.315,2.362-2.383,4.812-3.2,7.352
			c-0.817,2.544-1.271,5.107-1.362,7.693c-0.09,2.587,0.408,5.154,1.497,7.693c1.089,2.542,2.472,4.197,4.153,4.97
			c1.678,0.769,3.493,0.953,5.446,0.545c1.95-0.408,3.948-1.273,5.99-2.587c2.043-1.316,4.017-2.792,5.924-4.425
			c1.906-1.634,3.652-3.244,5.241-4.833c1.587-1.587,2.881-2.928,3.881-4.017c-0.183,1.452-0.296,3.043-0.341,4.765
			c-0.047,1.726,0.113,3.36,0.476,4.902c0.362,1.546,1.042,2.815,2.043,3.812c0.998,0.997,2.54,1.452,4.629,1.363
			c3.993-0.908,7.488-2.542,10.484-4.902s5.74-5.083,8.238-8.17c2.495-3.084,4.833-6.307,7.012-9.667
			c2.179-3.358,4.493-6.489,6.944-9.396c0.453-0.726,0.681-1.134,0.681-1.226c-0.183-0.18-0.501-0.361-0.954-0.545
			C166.888,591.75,166.299,592.021,165.574,592.747z M134.666,596.968c-1.906,3.451-4.04,6.719-6.4,9.803
			c-2.361,3.086-4.948,5.946-7.761,8.578c-0.636,0.636-1.477,1.294-2.519,1.974c-1.044,0.681-2.11,1.204-3.2,1.568
			s-2.157,0.455-3.2,0.271c-1.044-0.182-1.885-0.861-2.519-2.042c-0.727-1.179-0.976-2.563-0.749-4.154
			c0.225-1.587,0.658-3.2,1.293-4.833c0.634-1.634,1.362-3.2,2.179-4.697c0.817-1.497,1.498-2.745,2.043-3.744
			c1.814-3.176,3.766-6.307,5.854-9.396c2.087-3.084,4.221-6.079,6.399-8.986c1.089-1.179,2.223-2.428,3.404-3.744
			c1.178-1.316,2.451-2.587,3.812-3.812s2.745-2.268,4.153-3.131c1.406-0.863,2.835-1.431,4.289-1.702
			c1.995,0.184,3.221,0.908,3.676,2.179c0.453,1.271,0.476,2.86,0.068,4.765c-0.409,1.905-1.136,3.996-2.179,6.262
			c-1.044,2.27-2.157,4.404-3.336,6.401c-1.18,1.997-2.293,3.768-3.335,5.31C135.595,595.381,134.938,596.423,134.666,596.968z"/>
		<path fill="#EFDF9C" d="M302.545,542.369c1.089-1.995,2.315-3.926,3.677-5.788c1.362-1.858,2.88-3.471,4.561-4.833
			c1.678-1.361,3.561-2.313,5.65-2.858c0.453-0.09,0.953-0.158,1.497-0.205c0.545-0.045,1.022-0.158,1.43-0.34
			c0.409-0.182,0.681-0.453,0.817-0.818c0.137-0.361,0.021-0.906-0.341-1.634c-0.363-0.634-0.908-0.974-1.634-1.021
			c-0.727-0.045-1.497,0.047-2.314,0.273s-1.634,0.5-2.451,0.816c-0.817,0.32-1.498,0.568-2.043,0.75
			c-1.634,0.726-3.267,1.566-4.901,2.518c-1.634,0.953-3.224,1.974-4.766,3.063c-4.812,3.451-9.033,7.4-12.662,11.847
			c-3.632,4.447-6.923,9.101-9.872,13.956c-2.951,4.857-5.742,9.872-8.374,15.045c-2.633,5.173-5.378,10.235-8.237,15.182
			c-2.86,4.949-5.991,9.714-9.396,14.297c-3.404,4.584-7.375,8.736-11.914,12.458c-3.178,2.36-6.467,4.267-9.871,5.718
			c-3.404,1.452-7.104,2.134-11.097,2.042c-1.273,0-2.566-0.293-3.881-0.884c-1.317-0.59-2.383-1.363-3.2-2.315
			s-1.249-2.018-1.293-3.2c-0.047-1.179,0.657-2.315,2.11-3.404c0.998-0.816,1.587-1.837,1.77-3.063
			c0.182-1.226,0.068-2.471-0.34-3.744c-0.409-1.271-1.069-2.405-1.975-3.404c-0.909-0.998-1.906-1.634-2.996-1.905
			c-1.816-0.453-3.427-0.318-4.833,0.408c-1.406,0.728-2.541,1.771-3.404,3.131c-0.861,1.363-1.45,2.883-1.77,4.562
			c-0.317,1.681-0.341,3.246-0.068,4.697c0.636,3.723,2.294,6.514,4.97,8.375s5.786,3.018,9.326,3.471
			c4.266,0.726,8.487,0.818,12.663,0.273c4.174-0.545,8.237-1.519,12.186-2.928c3.948-1.406,7.782-3.176,11.505-5.31
			c3.721-2.132,7.306-4.47,10.756-7.012c4.992-3.994,9.212-8.486,12.663-13.479c3.448-4.992,6.536-10.233,9.258-15.726
			c2.723-5.491,5.287-11.098,7.693-16.815c2.404-5.72,5.106-11.254,8.101-16.611C300.456,546.228,301.455,544.366,302.545,542.369z"
			/>
		<path fill="#EFDF9C" d="M324.466,565.107c3.176-2.087,5.944-4.652,8.306-7.693c2.359-3.039,4.084-6.557,5.173-10.551
			c1.089-4.267,1.338-8.58,0.75-12.937c-0.591-4.357-2.384-8.257-5.378-11.709c-2.451-2.905-5.426-5.173-8.919-6.807
			c-3.495-1.634-7.148-2.813-10.96-3.541c-4.54-0.816-9.102-1.089-13.684-0.816c-4.585,0.271-9.122,0.976-13.615,2.11
			c-4.494,1.136-8.874,2.678-13.14,4.628c-4.267,1.954-8.305,4.154-12.118,6.604c-3.812,2.45-7.488,5.154-11.028,8.101
			c-3.54,2.952-6.696,6.174-9.463,9.667c-2.77,3.496-5.017,7.309-6.741,11.437c-1.725,4.133-2.722,8.601-2.995,13.411
			c0.089,1.089,0.181,2.202,0.272,3.336c0.089,1.136,0.225,2.294,0.408,3.473c0.453,2.179,1.315,3.971,2.587,5.378
			c1.271,1.407,2.768,2.45,4.494,3.131c1.723,0.681,3.585,1.068,5.582,1.158c1.996,0.092,3.949-0.09,5.855-0.545
			c3.448-0.818,6.965-2.247,10.552-4.289c3.584-2.042,6.512-4.607,8.782-7.693c0.272-0.453,0.545-1.042,0.817-1.771
			c0.272-0.724,0.09-1.314-0.545-1.769c-0.363-0.182-0.749-0.182-1.157,0c-0.409,0.182-0.817,0.476-1.226,0.884
			c-0.408,0.408-0.796,0.816-1.158,1.226c-0.363,0.408-0.68,0.703-0.953,0.884c-1,0.818-2.225,1.521-3.677,2.11
			c-1.452,0.591-2.951,0.976-4.493,1.158c-1.544,0.183-3.087,0.205-4.629,0.068c-1.544-0.137-2.906-0.566-4.085-1.294
			c-1.726-0.998-2.951-2.382-3.676-4.152c-0.728-1.771-1.113-3.652-1.158-5.651c-0.047-1.995,0.157-4.016,0.613-6.057
			c0.453-2.044,0.998-3.834,1.634-5.38c1.634-3.811,3.629-7.283,5.991-10.415c2.359-3.133,5.082-6.013,8.169-8.646
			c3.358-2.631,6.741-5.152,10.144-7.557c3.404-2.405,7.149-4.334,11.233-5.788c4.174-1.45,8.441-2.403,12.798-2.858
			s8.714-0.455,13.071,0c3.993,0.455,7.533,1.634,10.62,3.539c3.084,1.907,5.4,4.812,6.944,8.714
			c1.542,3.812,2.043,7.83,1.498,12.05s-1.771,8.148-3.677,11.777c-1.634,3.178-3.654,6.128-6.058,8.851
			c-2.407,2.723-5.379,4.675-8.918,5.854c-1.181,0.455-2.407,0.748-3.677,0.884c-1.272,0.137-2.543,0.16-3.812,0.068
			c-0.636,0-1.497-0.158-2.587-0.476c-1.089-0.316-1.861-0.113-2.315,0.613c-0.635,0.816-0.659,1.452-0.067,1.905
			c0.589,0.457,1.406,0.818,2.45,1.089c1.042,0.273,2.088,0.433,3.132,0.476c1.042,0.047,1.702,0.068,1.975,0.068
			c3.901,0.092,7.761-0.408,11.573-1.497C317.795,568.783,321.288,567.196,324.466,565.107z"/>
		<path fill="#EFDF9C" d="M348.02,557.619l3.949-1.363c1.814-0.634,3.833-1.474,6.058-2.518c2.223-1.042,4.357-2.132,6.4-3.268
			c2.042-1.134,3.833-2.223,5.378-3.268c1.542-1.042,2.587-1.927,3.131-2.655c0.634-0.906,1.134-1.907,1.498-2.996
			c0.361-1.089-0.272-2.087-1.906-2.995c-0.817-0.453-1.657-0.59-2.519-0.408c-0.864,0.182-1.681,0.545-2.451,1.089
			c-0.772,0.545-1.544,1.179-2.314,1.905c-0.773,0.728-1.522,1.409-2.247,2.042c-2.723,2.27-5.538,4.312-8.442,6.128
			c-2.906,1.817-5.674,3.904-8.305,6.262c-0.272,0.636-0.251,1.181,0.068,1.634C346.635,557.666,347.203,557.801,348.02,557.619z"/>
		<path fill="#EFDF9C" d="M461.574,565.923c-1.817,0-3.677-0.021-5.583-0.068c-1.906-0.043-3.859,0.023-5.854,0.205
			c-0.909,0.092-1.634,0.273-2.179,0.545c-0.545,0.273-1.044,0.613-1.498,1.021c-0.455,0.408-0.864,0.91-1.225,1.497
			c-0.364,0.591-0.817,1.204-1.362,1.839c-0.909-1.995-2.157-3.404-3.744-4.22c-1.589-0.818-3.291-1.247-5.106-1.294
			c-1.817-0.045-3.7,0.205-5.651,0.75c-1.952,0.545-3.744,1.181-5.378,1.905c-4.176,1.817-7.965,4.178-11.369,7.08
			c-3.404,2.907-6.603,6.038-9.599,9.396c-1.497,1.641-2.911,3.349-4.266,5.105c-0.253,0.051-0.492,0.165-0.704,0.41
			c-0.591,0.679-1.113,1.384-1.566,2.11c-1.544,2.179-3.246,4.628-5.106,7.352c-1.861,2.723-3.791,5.267-5.787,7.625
			c-1.997,2.362-3.927,4.381-5.786,6.059c-1.862,1.681-3.564,2.655-5.106,2.928c-1.089,0.182-1.817-0.318-2.179-1.499
			c-0.364-1.177-0.545-2.223-0.545-3.131c-0.092-1.361,0.044-2.676,0.408-3.949c0.362-1.269,0.862-2.518,1.498-3.744
			c0.633-1.224,1.315-2.426,2.042-3.607c0.725-1.179,1.451-2.315,2.179-3.404c2.54-4.445,5.196-8.759,7.966-12.935
			c2.767-4.174,5.739-8.259,8.918-12.253c0.361-0.545,0.749-1.158,1.157-1.839c0.409-0.681,0.681-1.314,0.817-1.905
			c0.137-0.59,0.045-1.089-0.272-1.499c-0.319-0.408-1.021-0.564-2.11-0.476c-1.453,0.183-2.927,0.568-4.425,1.158
			c-1.497,0.591-3.018,1.021-4.561,1.294c-1.18,0.183-2.361,0.203-3.54,0.068c-1.18-0.137-2.361-0.476-3.54-1.021
			c-0.363-0.182-0.772-0.455-1.225-0.818c-0.455-0.361-0.932-0.703-1.43-1.021c-0.5-0.316-0.999-0.545-1.497-0.681
			c-0.5-0.137-0.977-0.113-1.43,0.068c-2.815,5.175-5.65,10.463-8.51,15.863c-2.715,5.13-5.674,10.082-8.838,14.884
			c-1.6,1.968-3.327,4.025-5.252,6.22c-2.27,2.587-4.698,5.128-7.284,7.625c-2.588,2.497-5.153,4.515-7.693,6.059
			c-1.089,0.726-2.451,1.452-4.085,2.179c-1.634,0.726-3.246,1.179-4.833,1.361c-1.589,0.183-2.974-0.068-4.153-0.75
			c-1.18-0.679-1.906-2.063-2.179-4.152c-0.182-1.542-0.114-3.108,0.205-4.697c0.316-1.587,0.794-3.108,1.429-4.562
			c0.454-0.997,0.885-2.223,1.294-3.676c0.408-1.45,0.974-2.54,1.701-3.268c0.634-0.726,1.587-1.134,2.86-1.226
			c1.27-0.088,2.359-0.224,3.268-0.408c1.634-0.453,3.199-0.929,4.697-1.429c1.498-0.498,3.017-1.066,4.561-1.702
			c2.813-1.271,5.605-2.768,8.375-4.494c2.767-1.724,5.241-3.766,7.42-6.128c0.907-0.906,1.791-1.95,2.655-3.131
			c0.862-1.179,1.567-2.45,2.111-3.812c0.545-1.361,0.861-2.745,0.953-4.152c0.09-1.406-0.272-2.745-1.089-4.017
			c-0.999-1.722-2.498-2.676-4.493-2.858c-1.998-0.182-3.859-0.09-5.583,0.271c-2.723,0.455-5.378,1.181-7.965,2.179
			c-2.588,1-5.062,2.27-7.421,3.812c-4.902,2.907-9.259,6.354-13.071,10.348c-3.812,3.996-7.035,8.533-9.667,13.616
			c-0.999,1.817-1.928,3.744-2.792,5.786c-0.861,2.042-1.542,4.152-2.042,6.331c-0.498,2.179-0.725,4.357-0.681,6.536
			c0.047,2.179,0.524,4.222,1.43,6.128c1.089,2.179,2.564,3.768,4.425,4.765c1.859,0.997,3.856,1.542,5.991,1.634
			c2.132,0.09,4.31-0.158,6.535-0.748c1.687-0.447,3.183-1.051,4.584-1.734c-0.019,0.309,0.007,0.615,0.113,0.916
			c0.272,0.771,0.999,1.066,2.179,0.884c4.357-2.54,8.26-5.649,11.71-9.325c3.45-3.676,6.65-7.625,9.599-11.845
			c1.148-1.644,2.246-3.32,3.34-4.998c0.992-1.228,1.918-2.43,2.72-3.581c1.362-1.95,2.268-3.608,2.723-4.968
			c0.03-0.12,0.021-0.21,0.039-0.321c2.418-4.13,4.853-8.119,7.313-11.934c0.906-0.724,1.678-0.953,2.314-0.681
			c0.634,0.273,1.451,0.545,2.451,0.818c1.089,0.455,2.223,0.568,3.404,0.34c1.179-0.224,2.36-0.248,3.54-0.068
			c-1.544,2.091-3.178,4.064-4.901,5.925c-1.726,1.86-3.473,3.723-5.242,5.581c-1.771,1.862-3.472,3.768-5.106,5.72
			c-1.634,1.952-3.042,4.062-4.221,6.331c-0.817,1.544-1.681,3.383-2.587,5.515c-0.909,2.134-1.498,4.289-1.771,6.467
			c-0.272,2.179-0.091,4.199,0.545,6.059c0.634,1.86,2.043,3.336,4.221,4.425c1.634,0.724,3.335,0.929,5.106,0.611
			c1.77-0.318,3.493-0.953,5.174-1.905c1.679-0.953,3.268-2.063,4.765-3.336c1.498-1.271,2.792-2.45,3.881-3.539
			c1.906-2.179,3.562-4.131,4.97-5.856c1.357-1.662,2.692-3.327,4.008-4.993c-0.358,1.621-0.605,3.308-0.741,5.061
			c-0.136,1.771-0.068,3.496,0.204,5.175c0.272,1.681,0.817,3.268,1.634,4.765c0.817,1.497,1.996,2.747,3.54,3.744
			c1.906,0.906,3.857,1.226,5.855,0.953c1.995-0.271,3.901-0.884,5.719-1.837c1.814-0.955,3.584-2.11,5.31-3.473
			c1.724-1.361,3.268-2.676,4.629-3.949c-2.633,4.902-5.357,9.735-8.17,14.502c-2.815,4.765-5.901,9.37-9.259,13.819
			c-1.362,1.815-2.837,3.629-4.424,5.446c-1.59,1.815-3.315,3.449-5.174,4.902c-1.859,1.45-3.834,2.655-5.923,3.607
			c-2.088,0.955-4.31,1.566-6.672,1.839c-0.725,0.09-1.566,0.137-2.518,0.137c-0.954,0-1.883-0.137-2.792-0.41
			c-0.907-0.271-1.702-0.703-2.383-1.292c-0.681-0.591-1.066-1.386-1.158-2.384c0-0.728,0.136-1.384,0.408-1.974
			c0.272-0.591,0.591-1.158,0.954-1.702c0.364-0.545,0.613-1.136,0.749-1.771c0.137-0.636,0.068-1.361-0.204-2.179
			c-0.725-1.815-2.043-2.815-3.949-2.995c-1.905-0.183-3.539,0.224-4.901,1.226c-1.543,0.906-2.564,2.221-3.064,3.947
			c-0.498,1.724-0.476,3.449,0.068,5.175c0.455,1.361,1.203,2.518,2.246,3.471c1.045,0.955,2.225,1.702,3.54,2.247
			c1.317,0.545,2.702,0.929,4.153,1.158c1.453,0.226,2.815,0.385,4.085,0.476c4.085,0.182,8.193-0.184,12.322-1.089
			c4.132-0.908,7.966-2.27,11.506-4.084c3.901-1.999,7.441-4.472,10.62-7.422c3.176-2.95,6.08-6.173,8.713-9.667
			c2.632-3.494,5.107-7.104,7.421-10.824c2.315-3.723,4.606-7.397,6.876-11.027c5.627-8.896,11.118-17.747,16.475-26.551
			C451.135,584.08,456.4,575.092,461.574,565.923z M332.975,584.509c2.132-3.039,4.514-5.923,7.148-8.646
			c0.182-0.182,0.59-0.613,1.226-1.294c0.633-0.679,1.362-1.382,2.179-2.11c0.817-0.724,1.702-1.429,2.655-2.11
			c0.954-0.681,1.838-1.179,2.655-1.497c0.817-0.316,1.498-0.385,2.043-0.205c0.545,0.184,0.861,0.773,0.953,1.771
			c0.09,1.181-0.227,2.518-0.953,4.017c-0.728,1.497-1.362,2.747-1.906,3.744c-0.817,1.271-1.749,2.473-2.792,3.608
			c-1.044,1.136-2.157,2.202-3.336,3.2c-2.361,2.089-4.833,4.041-7.42,5.854c-2.588,1.817-5.47,2.815-8.646,2.996
			C328.775,590.66,330.841,587.551,332.975,584.509z M439.585,574.843c-0.137,0.953-0.296,1.749-0.476,2.382
			c-0.728,2.452-1.657,4.814-2.792,7.08c-1.136,2.27-2.429,4.472-3.881,6.604c-1.453,2.134-2.951,4.22-4.493,6.264
			c-1.545,2.042-3.042,4.107-4.494,6.194c-1.089,1.544-2.314,3.178-3.676,4.902c-1.362,1.726-2.815,3.315-4.357,4.765
			c-1.544,1.454-3.223,2.612-5.037,3.473c-1.817,0.863-3.812,1.249-5.991,1.158c-1.817-0.09-2.838-0.818-3.064-2.179
			c-0.227-1.363-0.092-2.905,0.409-4.63c0.498-1.722,1.157-3.424,1.974-5.105c0.817-1.679,1.406-2.881,1.771-3.609
			c2.631-4.718,5.514-9.257,8.646-13.614c3.131-4.357,6.603-8.443,10.415-12.255c0.726-0.724,1.567-1.519,2.519-2.382
			c0.953-0.863,1.951-1.655,2.996-2.384c1.042-0.726,2.132-1.337,3.268-1.839c1.134-0.498,2.247-0.701,3.336-0.611
			c0.998,0,1.723,0.295,2.179,0.884c0.453,0.591,0.725,1.318,0.817,2.179C439.742,572.982,439.721,573.89,439.585,574.843z"/>
		<path fill="#EFDF9C" d="M501.876,590.161c0.545-1.724,1.066-3.563,1.567-5.515c0.498-1.952,0.749-4.062,0.749-6.333
			c0-2.266-0.319-4.265-0.954-5.989c-1.272-2.723-3.29-4.72-6.058-5.991c-2.77-1.271-5.742-1.815-8.918-1.634
			c-3.54,0.182-6.923,0.976-10.144,2.382c-3.223,1.409-6.287,3.02-9.191,4.833h-0.136c-5.63,3.812-10.644,8.375-15.046,13.684
			c-4.404,5.31-7.602,10.961-9.599,16.952c-0.362,1.271-0.658,2.61-0.885,4.016c-0.225,1.409-0.341,2.702-0.341,3.881
			c0,3.268,1.044,6.446,3.132,9.532c1.816,2.179,4.242,3.768,7.284,4.765c3.039,0.997,6.058,1.314,9.054,0.953
			c3.085-0.363,6.036-1.158,8.851-2.383c2.812-1.224,5.467-2.723,7.965-4.492c2.496-1.771,4.833-3.697,7.012-5.788
			c2.179-2.087,4.175-4.22,5.991-6.399c1.996-2.631,3.834-5.378,5.515-8.238C499.402,595.539,500.787,592.794,501.876,590.161z
			 M494.252,576.679c-0.092,0.636-0.228,1.181-0.409,1.634c-0.817,2.997-1.953,6.196-3.404,9.601
			c-1.453,3.403-3.201,6.807-5.242,10.211s-4.336,6.719-6.876,9.94c-2.542,3.223-5.31,6.104-8.305,8.646
			c-0.183,0-0.408,0.09-0.68,0.271c-0.272,0.183-0.364,0.273-0.272,0.273c-1.362,0.816-2.907,1.634-4.629,2.45
			c-1.726,0.818-3.36,1-4.902,0.545c-1.545-0.726-2.566-1.519-3.064-2.384c-0.5-0.861-0.749-1.882-0.749-3.063
			c0-0.182,0.068-0.634,0.204-1.361c0.137-0.726,0.294-1.499,0.476-2.315v-0.545c0.545-2.905,1.634-6.081,3.268-9.532
			c1.634-3.447,3.63-6.897,5.991-10.346c2.359-3.449,5.015-6.762,7.966-9.94c2.949-3.176,6.012-5.944,9.191-8.306
			c1.089-0.816,2.427-1.634,4.016-2.45c1.587-0.818,3.108-1.134,4.561-0.953c1.179,0.271,1.975,0.953,2.383,2.042
			c0.409,1.089,0.613,2.27,0.613,3.539C494.388,575.366,494.341,576.047,494.252,576.679z"/>
		<path fill="#EFDF9C" d="M594.322,591.929c-0.455-0.18-1.044,0.092-1.77,0.818c-1.906,2.089-3.677,4.336-5.311,6.739
			c-1.634,2.407-3.291,4.814-4.969,7.217c-1.681,2.407-3.496,4.652-5.446,6.741c-1.953,2.089-4.2,3.859-6.74,5.31
			c-1.817,0.545-2.883,0.271-3.2-0.818c-0.318-1.089-0.272-2.45,0.137-4.084c0.408-1.634,0.998-3.268,1.77-4.902
			c0.77-1.634,1.338-2.723,1.702-3.268c4.085-6.352,7.942-12.888,11.573-19.607c3.63-6.715,7.353-13.432,11.165-20.152h-13.616
			c-0.455,1.001-0.953,1.954-1.497,2.86c-0.545,0.908-1.089,1.862-1.634,2.86c-0.909-2.452-2.225-4.086-3.948-4.902
			c-1.726-0.818-3.609-1.134-5.651-0.953c-2.042,0.182-4.131,0.703-6.262,1.566c-2.135,0.863-4.017,1.749-5.651,2.655
			c-4.72,2.633-9.054,5.809-13.003,9.53c-3.948,3.723-7.42,7.853-10.415,12.39c-1.362,2.091-2.702,4.312-4.016,6.672
			c-1.315,2.362-2.383,4.812-3.2,7.352c-0.223,0.693-0.412,1.388-0.581,2.084c-1.102,1.247-2.238,2.468-3.434,3.636
			c-2.042,1.997-4.289,3.723-6.74,5.173c-1.452,0.636-2.587,0.75-3.404,0.342c-0.817-0.41-1.226-1.021-1.226-1.839
			c-0.183-1.179,0.045-2.45,0.681-3.812c0.633-1.361,1.178-2.403,1.634-3.131c3.54-6.989,7.261-13.864,11.165-20.628
			c3.901-6.76,7.829-13.501,11.777-20.22c3.948-6.715,7.874-13.388,11.778-20.015c3.901-6.624,7.669-13.296,11.301-20.015
			c0.089-0.453,0.157-1.269,0.204-2.45c0.045-1.179-0.296-1.907-1.021-2.179c-0.636,0-1.657,0.092-3.064,0.271
			c-1.408,0.183-2.906,0.365-4.493,0.545c-1.589,0.184-3.042,0.365-4.357,0.545c-1.317,0.183-2.157,0.32-2.519,0.408
			c-0.092,0.457-0.136,1.046-0.136,1.771c0,0.728,0,1.318,0,1.771c-0.092,0.636-0.252,1.249-0.477,1.839
			c-0.227,0.591-0.523,1.203-0.884,1.837c-3.724,6.446-7.444,12.823-11.165,19.131c-3.723,6.309-7.488,12.642-11.301,18.994
			c-3.179,5.446-6.423,10.803-9.735,16.066c-3.315,5.265-6.332,10.711-9.055,16.339c-0.817,1.634-1.634,3.791-2.451,6.467
			c-0.817,2.678-1.225,5.288-1.225,7.83c0,2.542,0.591,4.697,1.77,6.467c1.179,1.769,3.404,2.563,6.671,2.382
			c4.085-0.816,7.762-2.45,11.029-4.902c2.852-2.138,5.484-4.608,7.921-7.369c-0.006,0.119-0.021,0.238-0.025,0.357
			c-0.09,2.587,0.408,5.154,1.497,7.693c1.089,2.542,2.472,4.197,4.153,4.97c1.678,0.769,3.493,0.953,5.446,0.545
			c1.95-0.408,3.948-1.273,5.99-2.587c2.043-1.316,4.017-2.792,5.924-4.425s3.652-3.244,5.241-4.833
			c1.587-1.587,2.881-2.928,3.881-4.017c-0.184,1.452-0.296,3.043-0.341,4.765c-0.047,1.726,0.113,3.36,0.476,4.902
			c0.362,1.546,1.042,2.815,2.043,3.812c0.998,0.997,2.54,1.452,4.629,1.363c3.993-0.908,7.488-2.542,10.484-4.902
			c2.995-2.36,5.74-5.083,8.238-8.17c2.495-3.084,4.833-6.307,7.012-9.667c2.179-3.358,4.493-6.489,6.944-9.396
			c0.453-0.726,0.681-1.134,0.681-1.226C595.092,592.294,594.775,592.113,594.322,591.929z M561.645,596.968
			c-1.906,3.451-4.04,6.719-6.4,9.803c-2.361,3.086-4.948,5.946-7.761,8.578c-0.636,0.636-1.477,1.294-2.519,1.974
			c-1.044,0.681-2.11,1.204-3.2,1.568s-2.157,0.455-3.2,0.271c-1.044-0.182-1.885-0.861-2.519-2.042
			c-0.727-1.179-0.976-2.563-0.749-4.154c0.225-1.587,0.658-3.2,1.293-4.833c0.634-1.634,1.362-3.2,2.179-4.697
			c0.817-1.497,1.498-2.745,2.043-3.744c1.815-3.176,3.766-6.307,5.854-9.396c2.087-3.084,4.221-6.079,6.399-8.986
			c1.089-1.179,2.223-2.428,3.404-3.744c1.178-1.316,2.451-2.587,3.812-3.812c1.362-1.226,2.745-2.268,4.153-3.131
			c1.406-0.863,2.835-1.431,4.289-1.702c1.995,0.184,3.221,0.908,3.676,2.179c0.453,1.271,0.476,2.86,0.068,4.765
			c-0.409,1.905-1.136,3.996-2.179,6.262c-1.044,2.27-2.157,4.404-3.336,6.401c-1.18,1.997-2.293,3.768-3.335,5.31
			C562.574,595.381,561.917,596.423,561.645,596.968z"/>
	</g>
	<g>
		<path fill="#2B2D39" d="M576.749,617.077c-1.386,1.377-2.835,2.662-4.348,3.854c-2.96,2.332-6.409,3.956-10.344,4.87
			c-0.092,0.021-0.191,0.035-0.286,0.038c-2.016,0.063-3.51-0.394-4.484-1.368c-1-0.997-1.681-2.266-2.043-3.812
			c-0.363-1.542-0.523-3.176-0.476-4.902c0.045-1.722,0.157-3.313,0.341-4.766c-0.999,1.089-2.294,2.431-3.881,4.018
			c-1.589,1.589-3.335,3.199-5.241,4.833c-1.906,1.634-3.881,3.11-5.924,4.425c-2.042,1.314-4.04,2.179-5.99,2.587
			c-1.953,0.408-3.769,0.224-5.447-0.545c-1.681-0.773-3.064-2.428-4.153-4.97c-1.089-2.54-1.587-5.107-1.497-7.693
			c0.004-0.119,0.02-0.238,0.025-0.357c-2.134,2.475-4.733,4.922-7.921,7.369c-3.233,2.425-6.865,4.05-10.897,4.875
			c-0.086,0.018-0.178,0.029-0.266,0.033c-3.195,0.153-5.375-0.644-6.538-2.388c-3.261-4.383-7.474-6.322-12.661-5.758
			c-2.655,0.289-5.193,1.27-7.45,2.698c-1.922,1.216-3.931,2.282-6.028,3.194c-2.815,1.226-5.765,2.02-8.851,2.384
			c-2.995,0.361-6.014,0.045-9.054-0.953c-2.257-0.74-4.174-1.806-5.756-3.196c-1.351-1.188-2.844-2.227-4.547-2.805
			c-7.481-2.541-13.816,0.172-18.841,8.884c-0.586,0.942-1.175,1.887-1.764,2.835c-2.314,3.721-4.789,7.33-7.421,10.824
			c-2.633,3.494-5.537,6.717-8.713,9.667c-3.179,2.95-6.719,5.423-10.62,7.422c-3.54,1.814-7.374,3.176-11.506,4.084
			c-4.129,0.906-8.237,1.271-12.322,1.089c-1.27-0.092-2.632-0.25-4.085-0.476c-1.451-0.228-2.836-0.613-4.153-1.158
			c-1.315-0.545-2.495-1.292-3.54-2.247c-1.042-0.953-1.791-2.11-2.246-3.471c-0.545-1.726-0.566-3.451-0.068-5.175
			c0.5-1.726,1.521-3.041,3.064-3.947c1.362-1.001,2.996-1.409,4.901-1.226c1.906,0.18,3.224,1.179,3.949,2.995
			c0.272,0.818,0.341,1.542,0.204,2.179c-0.136,0.634-0.385,1.226-0.749,1.771c-0.362,0.545-0.681,1.111-0.954,1.702
			c-0.272,0.59-0.408,1.245-0.408,1.974c0.092,0.998,0.476,1.792,1.158,2.384c0.68,0.59,1.476,1.021,2.383,1.292
			c0.909,0.273,1.838,0.41,2.792,0.41c0.953,0,1.793-0.047,2.518-0.137c2.362-0.273,4.584-0.884,6.672-1.839
			c2.089-0.953,4.063-2.157,5.923-3.607c1.859-1.452,3.584-3.086,5.174-4.902c1.587-1.817,3.063-3.631,4.424-5.446
			c3.358-4.449,6.444-9.054,9.259-13.819c2.716-4.602,5.347-9.266,7.896-13.993l-4.355,3.44c-1.726,1.363-3.495,2.518-5.31,3.473
			c-1.817,0.953-3.724,1.566-5.719,1.837c-1.956,0.268-3.868-0.034-5.736-0.897c-0.078-0.036-0.157-0.08-0.229-0.128
			c-1.49-0.986-2.632-2.211-3.43-3.672c-0.817-1.497-1.361-3.084-1.634-4.765c-0.272-1.679-0.34-3.404-0.204-5.175
			c0.136-1.753,0.383-3.44,0.741-5.061c-1.316,1.666-2.651,3.331-4.008,4.993c-1.4,1.715-3.043,3.653-4.934,5.815
			c-0.022,0.025-0.045,0.049-0.068,0.073c-1.083,1.08-2.365,2.249-3.849,3.507c-1.497,1.273-3.086,2.384-4.765,3.336
			c-1.681,0.953-3.404,1.587-5.174,1.905c-1.771,0.318-3.472,0.113-5.106-0.611c-2.178-1.089-3.587-2.565-4.221-4.425
			c-0.091-0.266-0.172-0.535-0.245-0.807c-1.488-5.609-7.995-8.108-12.618-4.601c-0.427,0.324-0.86,0.675-1.297,1.051
			c-3.449,3.676-7.353,6.786-11.71,9.325c-1.179,0.182-1.906-0.113-2.178-0.884c-0.106-0.301-0.132-0.607-0.113-0.916
			c-1.401,0.683-2.897,1.287-4.583,1.734c-2.224,0.59-4.403,0.837-6.535,0.748c-1.779-0.076-3.462-0.467-5.05-1.173
			c-0.636-0.283-1.264-0.588-1.915-0.834c-22.36-8.444-45.839-8.2-70.121-1.744c-1.348,0.358-2.676,0.798-4.006,1.22
			c-3.323,1.054-6.724,1.806-10.202,2.26c-4.176,0.545-8.397,0.453-12.663-0.273c-2.213-0.283-4.257-0.841-6.133-1.675
			c-3.302-1.467-6.665-2.806-10.187-3.615c-11.824-2.716-23.652-3.596-35.485-2.475c-7.961,0.755-15.625,3.192-22.951,6.397
			c-1.536,0.672-3.166,1.209-4.889,1.609c-0.091,0.021-0.19,0.034-0.284,0.037c-2.017,0.063-3.511-0.393-4.486-1.368
			c-1-0.997-1.681-2.266-2.043-3.812c-0.363-1.542-0.523-3.176-0.476-4.902c0.045-1.722,0.157-3.313,0.341-4.766
			c-0.999,1.089-2.294,2.431-3.881,4.018c-1.589,1.589-3.335,3.199-5.241,4.833c-1.906,1.634-3.881,3.11-5.924,4.425
			c-2.042,1.314-4.04,2.179-5.99,2.587c-1.953,0.408-3.769,0.224-5.446-0.545c-1.681-0.773-3.064-2.428-4.153-4.97
			c-0.715-1.674-1.192-3.385-1.393-5.135c-0.157-0.512-0.364-0.659-0.648-0.243c0,0.5-0.184,0.976-0.545,1.429
			c-0.545,1.363-1.317,2.52-2.315,3.473c-1,0.953-2.157,1.749-3.472,2.384c-1.317,0.634-2.678,1.156-4.085,1.566
			c-1.408,0.408-2.702,0.748-3.88,1.021c-2.09,0.453-4.221,0.613-6.4,0.476c-2.178-0.137-4.381-0.431-6.603-0.886
			c-2.225-0.453-4.426-1.021-6.604-1.7c-2.178-0.681-4.22-1.339-6.127-1.976c-1.545-0.453-3.087-1.158-4.629-2.11
			c-1.545-0.953-3.132-1.474-4.766-1.566c-1,0-1.906,0.228-2.723,0.681c-0.817,0.455-1.681,0.908-2.587,1.361
			c-1.906,0.91-3.996,1.634-6.263,2.179c-1.906,0.545-3.881,1.068-5.923,1.566c-2.043,0.5-4.108,0.865-6.195,1.089
			c-2.09,0.226-4.2,0.295-6.332,0.205c-2.134-0.09-4.2-0.453-6.195-1.089c-1.362-0.453-2.815-1.158-4.357-2.11
			c-1.542-0.953-2.812-2.063-3.812-3.336c-0.998-1.271-1.542-2.655-1.634-4.152V841.89h595.268V614.464
			C588.611,610.477,582.421,611.208,576.749,617.077z"/>
	</g>
	<g>
		<path fill="#EFDF9C" d="M194.849,713.763l-7.533,0.027l1.026-2.431l-1.647-3.726h-2.97v3.834l1.512,2.295h-7.479l1.512-2.295
			v-14.311l-1.512-2.295h10.314c1.206,0,2.241,0.302,3.105,0.905c0.864,0.603,1.512,1.39,1.944,2.362
			c0.432,0.972,0.648,2.007,0.648,3.104c0,1.188-0.248,2.295-0.742,3.321c-0.496,1.026-1.211,1.809-2.146,2.349l1.971,4.429
			L194.849,713.763z M183.725,703.584h4.104c0.486,0,0.868-0.221,1.147-0.662c0.279-0.44,0.418-0.949,0.418-1.525
			c0-0.575-0.135-1.066-0.405-1.472c-0.27-0.404-0.657-0.607-1.161-0.607h-4.104V703.584z"/>
		<path fill="#EFDF9C" d="M205.351,711.468l0.054-14.311l-1.512-2.295h13.77v5.968l-2.295-1.513h-5.508v2.781h4.185l1.242-0.81
			v6.048l-1.242-0.811h-4.185v2.781h5.508l2.295-1.512v5.967h-13.824L205.351,711.468z"/>
		<path fill="#EFDF9C" d="M241.316,704.826c0.738,0.81,1.107,1.764,1.107,2.861v0.567c0,1.044-0.261,2.007-0.783,2.889
			s-1.233,1.584-2.133,2.106c-0.9,0.521-1.881,0.782-2.943,0.782h-2.781c-1.062,0-2.043-0.261-2.943-0.782
			c-0.9-0.522-1.611-1.225-2.133-2.106s-0.783-1.845-0.783-2.889v-0.973h5.967l-1.188,1.81c0.288,0.324,0.648,0.486,1.08,0.486
			h2.511c0.45,0,0.8-0.117,1.053-0.352c0.252-0.233,0.378-0.513,0.378-0.837c0-0.233-0.077-0.454-0.229-0.661
			s-0.374-0.365-0.661-0.473l-5.994-2.133c-0.918-0.324-1.634-0.806-2.146-1.445c-0.513-0.639-0.77-1.435-0.77-2.389v-0.918
			c0-1.044,0.261-2.007,0.783-2.89c0.522-0.882,1.233-1.583,2.133-2.105c0.9-0.522,1.881-0.783,2.943-0.783h2.781
			c1.062,0,2.02,0.257,2.875,0.77c0.854,0.513,1.521,1.211,1.998,2.093s0.716,1.854,0.716,2.916v0.972h-5.697l1.188-1.809
			c-0.288-0.324-0.648-0.486-1.08-0.486h-2.592c-0.414,0-0.752,0.121-1.012,0.364c-0.261,0.243-0.392,0.526-0.392,0.851
			c0,0.27,0.094,0.526,0.283,0.77s0.473,0.419,0.851,0.526l4.59,1.458C239.569,703.413,240.577,704.016,241.316,704.826z"/>
		<path fill="#EFDF9C" d="M256.706,711.468v-12.15h-2.538l-2.295,1.513v-5.968h14.04v5.968l-2.295-1.513h-2.538v12.15l1.512,2.295
			h-7.398L256.706,711.468z"/>
		<path fill="#EFDF9C" d="M279.358,711.927l1.161,1.836h-7.857l1.782-1.89l5.778-15.12l-1.026-1.891h5.751l-1.026,1.891l5.913,15.12
			l1.782,1.89h-7.965l1.134-1.836l-0.567-1.431l-4.347-0.055L279.358,711.927z M283.706,706.716l-1.539-4.509l-1.485,4.509H283.706z
			"/>
		<path fill="#EFDF9C" d="M302.727,713.264c-0.891-0.514-1.593-1.216-2.106-2.106s-0.77-1.877-0.77-2.956l0.027-11.044l-1.512-2.295
			h7.479l-1.512,2.295l-0.027,11.044c0,0.378,0.135,0.701,0.405,0.972c0.27,0.27,0.594,0.405,0.972,0.405h2.889
			c0.125,0,0.306-0.068,0.54-0.203c0.233-0.135,0.436-0.306,0.607-0.513c0.171-0.207,0.256-0.428,0.256-0.661v-11.044l-1.512-2.295
			h7.479l-1.512,2.295v11.07c0,1.71-0.495,3.105-1.485,4.186c-0.99,1.08-2.448,1.619-4.374,1.619h-2.889
			C304.604,714.032,303.618,713.776,302.727,713.264z"/>
		<path fill="#EFDF9C" d="M341.675,713.763l-7.533,0.027l1.026-2.431l-1.647-3.726h-2.97v3.834l1.512,2.295h-7.479l1.512-2.295
			v-14.311l-1.512-2.295h10.314c1.206,0,2.241,0.302,3.105,0.905c0.864,0.603,1.512,1.39,1.944,2.362
			c0.432,0.972,0.648,2.007,0.648,3.104c0,1.188-0.248,2.295-0.742,3.321c-0.496,1.026-1.211,1.809-2.146,2.349l1.971,4.429
			L341.675,713.763z M330.551,703.584h4.104c0.486,0,0.868-0.221,1.147-0.662c0.279-0.44,0.418-0.949,0.418-1.525
			c0-0.575-0.135-1.066-0.405-1.472c-0.27-0.404-0.657-0.607-1.161-0.607h-4.104V703.584z"/>
		<path fill="#EFDF9C" d="M355.471,711.927l1.161,1.836h-7.857l1.782-1.89l5.778-15.12l-1.026-1.891h5.751l-1.026,1.891l5.913,15.12
			l1.782,1.89h-7.965l1.134-1.836l-0.567-1.431l-4.347-0.055L355.471,711.927z M359.818,706.716l-1.539-4.509l-1.485,4.509H359.818z
			"/>
		<path fill="#EFDF9C" d="M377.611,711.468v-14.311l-1.512-2.295h4.968l6.777,8.965l-0.027-6.67l-1.539-2.295h7.479l-1.512,2.295
			v16.605h-3.429l-6.75-9.261v6.966l1.512,2.295H376.1L377.611,711.468z"/>
		<path fill="#EFDF9C" d="M408.311,711.468v-12.15h-2.538l-2.295,1.513v-5.968h14.04v5.968l-2.295-1.513h-2.538v12.15l1.512,2.295
			h-7.398L408.311,711.468z"/>
	</g>
</g>
<g id="pixtures">
</g>
<g id="texte">
</g>
</svg>
